<svg xmlns="http://www.w3.org/2000/svg" viewBox="0 0 1200 250">
  <defs>
    <style>
      .cls-1 {
        fill: #f0f0f0;
      }

      .cls-2 {
        fill: #646464;
        opacity: 0.05;
      }
    </style>
  </defs>
  <g id="公司简介BG" transform="translate(-360 -61)">
    <g id="主图" transform="translate(-12348 -1024)">
      <rect id="主图-2" data-name="主图" class="cls-1" width="1200" height="250" transform="translate(12708 1085)"/>
      <path id="Intersection_1" data-name="Intersection 1" class="cls-2" d="M11606.827,4778.468l.972-.972.972.972Zm-4.635,0-20.706-20.706-7.237-.656-7.234,17.757,1.975,1.974v1.631h-1l-2.946-2.946,8.552-20.39,9.208,1.315,22.021,22.021Zm-6.578,0-19.392-19.391,4.306.357,19.031,19.034Zm-9.227,0-5.37-5.362-6.766,1.1-1.7,4.261h-1.8l2.183-5.579,9.208-1.315,6.9,6.894Zm-7.875,0-2.29-2.29,3.289-.656,2.946,2.946Zm-188.063,0,.266-.265.265.265Zm-6.047,0-20-20-7.236-.656-7.234,17.757,1.971,1.974v.924h-1.707l-2.238-2.239,8.549-20.39,9.211,1.315,21.312,21.314Zm-6.578,0-18.682-18.685,4.3.357,18.327,18.328Zm-9.229,0-4.659-4.651-6.768,1.1-1.422,3.554h-1.8l1.905-4.869,9.208-1.315,6.184,6.184Zm-7.873,0-1.58-1.58,3.289-.659,2.238,2.239Zm-194.108,0-19.292-19.292-7.234-.656-7.237,17.76,1.975,1.971v.217h-2.416l-1.532-1.532,8.552-20.39,9.212,1.315,20.6,20.607Zm-6.577,0-17.975-17.978,4.3.356,17.623,17.621Zm-9.232,0-3.952-3.945-6.765,1.1-1.139,2.847h-1.806l1.63-4.162,9.208-1.315,5.477,5.477Zm-7.869,0-.873-.873,3.289-.659,1.531,1.532Zm-194.108,0-18.586-18.586-7.237-.656-7.233,17.76,1.481,1.481h-2.631l-.825-.826,8.553-20.39,9.208,1.315,19.9,19.9Zm-6.579,0-17.27-17.268,4.3.354,16.914,16.914Zm-9.231,0-3.244-3.238-6.769,1.1-.855,2.141h-1.812l1.353-3.456,9.208-1.315,4.771,4.771Zm-7.872,0-.166-.167,3.289-.659.825.826Zm-194.107,0-17.88-17.879-7.233-.656-7.237,17.76.774.775h-2.633l-.116-.116,8.553-20.393,9.211,1.315,19.191,19.194Zm-6.578,0-16.562-16.561,4.3.353,16.208,16.208Zm-9.234,0-2.536-2.531-6.765,1.1-.573,1.434h-1.817l1.075-2.749,9.208-1.315,4.064,4.064Zm-4.617,0,.579-.116.116.116Zm-197.361,0-10.988-10.988v-2.633l13.621,13.622Zm-6.576,0-4.412-4.412v-3.947l8.358,8.358Zm98.3-76.073,28.283-28.287,1.314,1.318-28.283,28.283Zm217.08-.707,28.287-28.286,1.314,1.315L10823.368,4703Zm217.081-.71,28.286-28.283,1.314,1.315-28.282,28.287Zm-436.136-.557,2.63-2.633-15.127-15.127,5.919-15.13,9.208-1.315,15.79,15.786,1.971-1.974,1.318,1.318-3.289,3.289-16.914-16.887-6.769,1.1-5.26,13.153,15.786,15.79-3.948,3.945Zm653.219-.149,28.283-28.283,1.315,1.315-28.283,28.287Zm-436.138-.557,2.633-2.633-15.13-15.127,5.922-15.13,9.208-1.315,15.786,15.786,1.975-1.974,1.314,1.318-3.289,3.286-16.914-16.884-6.765,1.1-5.264,13.156,15.786,15.786-3.948,3.948Zm653.219-.15,28.286-28.283,1.315,1.315-28.287,28.283Zm-436.135-.557,2.63-2.633-15.127-15.127,5.919-15.13,9.208-1.315,15.785,15.786,1.975-1.974,1.314,1.315-3.289,3.292-16.914-16.887-6.765,1.1-5.26,13.156,15.783,15.786-3.945,3.948Zm653.219-.149,11.875-11.875v2.63l-10.561,10.561Zm-436.139-.557,2.633-2.633-15.13-15.127,5.919-15.13,9.211-1.315,15.786,15.786,1.971-1.974,1.318,1.315-3.289,3.289-16.914-16.884-6.769,1.1-5.26,13.156,15.786,15.786-3.948,3.948Zm217.08-.71,2.634-2.63-15.131-15.126,5.923-15.13,9.208-1.315,15.786,15.786,1.974-1.974,1.315,1.315-3.289,3.289-16.914-16.884-6.766,1.1-5.263,13.156,15.786,15.786-3.945,3.948Zm217.084-.707,2.63-2.63-15.127-15.127,5.919-15.13,9.212-1.318,11.216,11.219v2.642l-12.345-12.324-6.768,1.1-5.26,13.156,15.786,15.786-3.948,3.945Zm-1081.464-4.356,3.292-5.919,3.286,3.286-4.6,4.607Zm217.084-.707,3.289-5.922,3.289,3.289-4.6,4.6Zm217.084-.707,3.285-5.922,3.289,3.289-4.6,4.6Zm217.08-.707,3.285-5.922,3.289,3.289-4.6,4.6Zm217.08-.71,3.289-5.919,3.289,3.289-4.6,4.6Zm217.081-.707,3.289-5.919,3.289,3.289-4.6,4.6Zm-1090.55-1.553,3.17-6.092,2.63,2.63-3.289,5.922Zm217.08-.707,3.17-6.092,2.63,2.63-3.285,5.919Zm-219.174-15.912,3.289-.656,16.445,16.445-1.974,1.971Zm436.254,15.205,3.174-6.092,2.63,2.63-3.289,5.919Zm-219.173-15.912,3.289-.656,16.445,16.442-1.975,1.974Zm436.257,15.205,3.17-6.1,2.63,2.633-3.289,5.919Zm-219.173-15.912,3.289-.659,16.444,16.445-1.974,1.974Zm436.254,15.205,3.17-6.1,2.633,2.633-3.289,5.918Zm-219.174-15.912,3.289-.659,16.445,16.445-1.975,1.974Zm436.257,15.205,3.171-6.1,2.63,2.633-3.289,5.919Zm-219.173-15.912,3.285-.659,16.445,16.445-1.971,1.974Zm-871.573,14.111,2.585-6.677,2.634,2.63-2.634,6.578Zm1088.653-14.818,3.289-.659,13.85,13.85v3.945Zm-871.57,14.111,2.586-6.676,2.63,2.63-2.63,6.578Zm217.081-.707,2.586-6.68,2.633,2.633-2.633,6.578Zm217.084-.707,2.585-6.68,2.63,2.633-2.63,6.575Zm217.08-.71,2.586-6.676,2.63,2.63-2.63,6.578Zm217.08-.707,2.59-6.677,2.63,2.63-2.63,6.578Zm-1082.164-24.848,4.3.354,23.985,23.985-1.975,1.974Zm217.081-.707,4.3.354,23.981,23.985-1.974,1.971Zm217.084-.707,4.3.356,23.981,23.981-1.974,1.971Zm217.08-.707,4.3.354,23.984,23.981-1.974,1.974Zm217.08-.707,4.306.353,23.981,23.982-1.975,1.974Zm-863.062,1.512-7.237-.659-7.234,17.76,1.975,1.974,0,2.63-3.944-3.945,8.552-20.39,9.208,1.315,23.021,23.02,1.974-1.971,1.315,1.315-3.286,3.289Zm217.08-.707-7.233-.659-7.237,17.76,1.974,1.974v2.63l-3.944-3.945,8.549-20.394,9.208,1.318,23.023,23.02,1.974-1.974,1.315,1.315-3.289,3.289Zm217.081-.707-7.234-.659-7.233,17.76,1.971,1.974v2.63l-3.945-3.945,8.553-20.393,9.208,1.315,23.02,23.023,1.974-1.974,1.315,1.315-3.289,3.292Zm217.083-.707-7.237-.659-7.233,17.76,1.974,1.974v2.63l-3.948-3.948,8.553-20.39,9.208,1.315,23.023,23.023,1.971-1.974,1.318,1.315-3.289,3.289Zm217.081-.71-7.234-.656-7.237,17.76,1.975,1.974v2.63l-3.945-3.948,8.549-20.39,9.208,1.315,23.023,23.023,1.975-1.974,1.314,1.315-3.289,3.289Zm200.639,17.053,8.552-20.39,9.208,1.315,10.561,10.561v2.631l-11.875-11.877-7.237-.656-7.234,17.76,1.975,1.971v2.633Zm11.182-16.442,4.3.354,12.837,12.837v3.946Zm-971.25-56.685,28.282-28.286,1.315,1.318-28.283,28.283Zm217.08-.707,28.283-28.283,1.314,1.315-28.283,28.283Zm217.08-.707,28.287-28.287,1.314,1.318-28.283,28.283Zm-436.135-.561,2.63-2.63-15.127-15.13,5.919-15.127,9.208-1.318,15.786,15.786,1.974-1.971,1.315,1.315-3.289,3.289-16.911-16.887-6.768,1.1-5.264,13.156,15.79,15.786-3.948,3.945Zm653.219-.149,28.283-28.283,1.315,1.318-28.283,28.283Zm-436.139-.557,2.63-2.63-15.126-15.13,5.918-15.127,9.208-1.318,15.786,15.79,1.975-1.974,1.314,1.315-3.289,3.289-16.91-16.887-6.769,1.1-5.26,13.156,15.786,15.783-3.948,3.948Zm653.22-.149,28.282-28.283,1.318,1.315-28.286,28.287Zm-436.136-.557,2.63-2.633-15.13-15.127,5.922-15.13,9.208-1.315,15.786,15.786,1.975-1.971,1.314,1.315-3.289,3.289-16.914-16.887-6.765,1.1-5.264,13.156,15.786,15.786-3.948,3.948Zm-643.8-1.38,22.81-22.809,1.318,1.315-24.128,24.127Zm860.881.673,2.63-2.63-15.127-15.13,5.919-15.13,9.208-1.315,15.786,15.786,1.974-1.971,1.315,1.315-3.286,3.289-16.914-16.887-6.769,1.1-5.263,13.156,15.789,15.79-3.948,3.945Zm217.08-.707,2.634-2.633-15.131-15.127,5.923-15.13,9.208-1.315,15.785,15.786,1.971-1.974,1.318,1.318-3.289,3.289-16.914-16.887-6.765,1.1-5.263,13.156,15.786,15.786-3.948,3.948Zm-864.38-5.066,3.289-5.919,3.289,3.289-4.6,4.6Zm217.083-.707,3.289-5.919,3.289,3.286-4.607,4.607Zm-430.664-4.295,3.078,3.079-3.078,3.078Zm647.745,3.588,3.289-5.922,3.289,3.289-4.6,4.607Zm217.084-.707,3.285-5.919,3.289,3.289-4.6,4.6Zm217.08-.707,3.289-5.922,3.289,3.289-4.6,4.6Zm-873.47-2.263,3.171-6.092,2.63,2.633-3.289,5.919Zm-208.439-5.172v-3.947l9,9-1.974,1.974Zm425.521,4.466,3.17-6.092,2.63,2.63-3.289,5.919Zm-219.174-15.908,3.289-.659,16.442,16.445-1.972,1.974Zm436.254,15.2,3.17-6.092,2.634,2.63-3.293,5.919Zm-219.174-15.909,3.289-.659,16.445,16.442-1.974,1.974Zm436.258,15.2,3.17-6.092,2.63,2.63-3.289,5.919Zm-219.174-15.912,3.289-.656,16.442,16.442-1.971,1.974Zm436.254,15.205,3.171-6.092,2.63,2.63-3.289,5.919ZM11359.85,4559.8l3.289-.656,16.445,16.445-1.975,1.971Zm217.084-.707,3.289-.656,16.441,16.442-1.974,1.974Zm-1074.676,6.4v-2.65l10.972,10.972,1.974-1.974,1.315,1.315-3.289,3.289Zm203.1,7.713,2.586-6.676,2.63,2.63-2.63,6.578Zm217.084-.707,2.586-6.677,2.63,2.63-2.63,6.578Zm217.081-.707,2.585-6.677,2.63,2.63-2.63,6.578Zm217.08-.707,2.586-6.677,2.633,2.63-2.633,6.578Zm217.084-.707,2.586-6.68,2.63,2.633-2.63,6.578Zm-1071.431-14.114v-3.948l17.55,17.549-1.975,1.974Zm206.347-11.444,4.3.356,23.981,23.982-1.975,1.974Zm217.08-.707,4.3.357,23.981,23.981-1.971,1.974Zm217.084-.707,4.3.357,23.981,23.981-1.974,1.974Zm217.081-.707,4.3.353,23.981,23.985-1.971,1.974Zm-857.592,6.986v-2.633l18.864,18.867,1.975-1.974,1.314,1.315-3.289,3.289ZM11576.934,4542l4.3.354,23.984,23.985-1.974,1.971Zm-863.065,1.512-7.237-.659-7.237,17.76,1.974,1.974v2.63l-3.944-3.945,8.549-20.39,9.211,1.315,23.02,23.02,1.975-1.971,1.314,1.315-3.289,3.289Zm217.08-.707-7.237-.659-7.233,17.76,1.974,1.974v2.633l-3.948-3.948,8.552-20.39,9.208,1.315,23.023,23.02,1.971-1.971,1.318,1.315-3.289,3.289Zm217.08-.707-7.233-.659-7.237,17.76,1.974,1.974v2.63l-3.944-3.945,8.549-20.39,9.211,1.315,23.021,23.02,1.974-1.971,1.315,1.315-3.289,3.289Zm217.084-.707-7.237-.659-7.233,17.76,1.971,1.974v2.63l-3.945-3.945,8.553-20.393,9.208,1.318,23.023,23.02,1.971-1.971,1.318,1.315-3.289,3.289Zm217.081-.707-7.237-.659-7.234,17.76,1.975,1.974v2.63l-3.948-3.945,8.552-20.394,9.208,1.315,23.023,23.023,1.974-1.974,1.315,1.318-3.289,3.289Z" transform="translate(2205.742 -3444.469)"/>
    </g>
  </g>
</svg>
