<svg xmlns="http://www.w3.org/2000/svg" viewBox="0 0 1200 250">
  <defs>
    <style>
      .cls-1 {
        fill: #f0f0f0;
      }

      .cls-2 {
        fill: #646464;
        opacity: 0.05;
      }
    </style>
  </defs>
  <g id="加入我们BG" transform="translate(-360 -61)">
    <g id="主图" transform="translate(-12348 -1024)">
      <rect id="主图-2" data-name="主图" class="cls-1" width="1200" height="250" transform="translate(12708 1085)"/>
      <path id="Intersection_1" data-name="Intersection 1" class="cls-2" d="M11599.921,4778.468l2.438-2.437a2.192,2.192,0,0,0,0-3.126l-9.732-9.733a2.236,2.236,0,0,0-1.54-.627,2.207,2.207,0,0,0-1.562.651l-3.572,3.572,11.7,11.7h-3.427l-15.481-15.482a2.533,2.533,0,0,0-1.638-.655,2.226,2.226,0,0,0-1.563.655l-12.156,12.16a2.159,2.159,0,0,0-.655,1.563,2.211,2.211,0,0,0,.655,1.563l.2.2h-3.477a2.988,2.988,0,0,1,.293-3.859l14.608-14.611a2.987,2.987,0,0,1,4.2,0l4.993,5,4.783-4.784a2.984,2.984,0,0,1,4.2,0l12.16,12.157a2.983,2.983,0,0,1,0,4.2l-1.9,1.9Zm-14.169,0-.452-.453a.4.4,0,0,1,0-.537l1.216-1.215a.387.387,0,0,1,.28-.115.43.43,0,0,1,.276.115l2.2,2.2Zm-202.2,0,1.73-1.729a2.2,2.2,0,0,0,0-3.13l-9.732-9.729a2.224,2.224,0,0,0-1.54-.631,2.2,2.2,0,0,0-1.562.655l-3.572,3.568,11,11h-3.431l-14.776-14.777a2.511,2.511,0,0,0-1.634-.651,2.2,2.2,0,0,0-1.563.655l-12.16,12.157a2.171,2.171,0,0,0-.651,1.563,2.195,2.195,0,0,0,.27,1.054h-3.278a3.034,3.034,0,0,1-.188-1.054,2.959,2.959,0,0,1,.861-2.1l14.611-14.608a2.983,2.983,0,0,1,4.2,0l5,4.993,4.784-4.784a2.983,2.983,0,0,1,4.2,0l12.16,12.157a2.987,2.987,0,0,1,0,4.2l-1.192,1.192Zm-15.434,0a.381.381,0,0,1,.105-.284l1.212-1.212a.388.388,0,0,1,.28-.118.434.434,0,0,1,.28.118l1.5,1.5Zm-200.941,0,1.022-1.023a2.195,2.195,0,0,0,0-3.126l-9.729-9.733a2.25,2.25,0,0,0-1.543-.628,2.205,2.205,0,0,0-1.56.652l-3.572,3.572,10.286,10.287h-3.43l-14.07-14.068a2.518,2.518,0,0,0-1.631-.655,2.214,2.214,0,0,0-1.563.655l-12.16,12.16a2.174,2.174,0,0,0-.654,1.563,2.132,2.132,0,0,0,.027.345h-3.205a3.1,3.1,0,0,1-.02-.345,2.94,2.94,0,0,1,.864-2.1l14.611-14.611a2.982,2.982,0,0,1,4.2,0l4.993,5,4.783-4.787a3,3,0,0,1,4.2,0l12.157,12.16a2.983,2.983,0,0,1,0,4.2l-.486.486Zm-15.612,0,.787-.79a.4.4,0,0,1,.28-.115.432.432,0,0,1,.28.115l.79.79Zm-200.76,0,.313-.314a2.2,2.2,0,0,0,0-3.13l-9.732-9.729a2.192,2.192,0,0,0-3.1.024l-3.571,3.568,9.58,9.581h-3.433l-13.359-13.362a2.511,2.511,0,0,0-1.634-.651,2.207,2.207,0,0,0-1.562.651l-12.16,12.16a2.164,2.164,0,0,0-.623,1.2h-3.206a2.932,2.932,0,0,1,.845-1.739l14.607-14.611a2.992,2.992,0,0,1,4.2,0l5,5,4.783-4.784a2.984,2.984,0,0,1,4.2,0l12.156,12.157a3,3,0,0,1,.205,3.98Zm-15.614,0,.081-.081a.383.383,0,0,1,.28-.118.424.424,0,0,1,.28.118l.081.081Zm-200.838,0a2.2,2.2,0,0,0-.317-2.735L10724.3,4766a2.205,2.205,0,0,0-3.106.024l-3.568,3.572,8.87,8.872h-3.428l-12.653-12.653a2.5,2.5,0,0,0-1.634-.655,2.2,2.2,0,0,0-1.562.655l-12.16,12.16a2.273,2.273,0,0,0-.377.493h-3.279a2.913,2.913,0,0,1,.668-1.033l14.611-14.608a2.983,2.983,0,0,1,4.2,0l4.993,4.993,4.784-4.784a2.987,2.987,0,0,1,4.2,0l12.156,12.16a2.946,2.946,0,0,1,.864,2.1,2.989,2.989,0,0,1-.236,1.172Zm-216.794,0a2.252,2.252,0,0,0,.048-.463,2.179,2.179,0,0,0-.651-1.566l-9.733-9.729a2.2,2.2,0,0,0-3.1.021l-1.856,1.856v-3.521l1.32-1.32a2.983,2.983,0,0,1,4.2,0l12.16,12.157a2.99,2.99,0,0,1,.828,2.566Zm-12.276,0-3.02-3.02v-3.432l6.451,6.452Zm98.07-85.557-19.463-19.462a2.983,2.983,0,0,1,0-4.2l14.607-14.611a2.992,2.992,0,0,1,4.2,0l5,5,4.784-4.784a2.983,2.983,0,0,1,4.2,0l12.16,12.157a2.994,2.994,0,0,1,0,4.2l-5.485,5.482-.28-.28-.233.723a2.832,2.832,0,0,1-.679,1.168l-14.607,14.608a2.983,2.983,0,0,1-4.2,0Zm-4.318-35.286-12.16,12.16a2.166,2.166,0,0,0-.651,1.563,2.206,2.206,0,0,0,.651,1.563l17.038,17.039a2.17,2.17,0,0,0,1.563.651,2.21,2.21,0,0,0,1.563-.651l.911-.912-9.523-9.52a.4.4,0,0,1,0-.54l1.215-1.212a.389.389,0,0,1,.28-.118.448.448,0,0,1,.28.118l9.521,9.523,2.545-2.545-8.659-8.66a.392.392,0,0,1,0-.537l1.212-1.212a.394.394,0,0,1,.284-.118.419.419,0,0,1,.276.118l8.659,8.659,2.542-2.545-7.791-7.795a.392.392,0,0,1,0-.537l1.212-1.212a.381.381,0,0,1,.28-.118.428.428,0,0,1,.28.118l7.795,7.795.908-.912a2.158,2.158,0,0,0,.654-1.563,2.2,2.2,0,0,0-.654-1.563l-17.035-17.039a2.511,2.511,0,0,0-1.634-.651A2.21,2.21,0,0,0,10599.03,4657.626Zm13.979.213-3.571,3.568,12.835,12.835,3.572-3.568a2.205,2.205,0,0,0,0-3.129l-9.733-9.729a2.192,2.192,0,0,0-3.1.024Zm207.419,34.367-19.463-19.462a2.987,2.987,0,0,1,0-4.2l14.611-14.608a2.983,2.983,0,0,1,4.2,0l4.993,4.993,4.784-4.784a2.983,2.983,0,0,1,4.2,0l12.16,12.16a2.983,2.983,0,0,1,0,4.2l-5.482,5.482-.28-.277-.232.723a2.861,2.861,0,0,1-.679,1.165l-14.607,14.611a2.987,2.987,0,0,1-4.2,0Zm-4.314-35.286-12.16,12.157a2.168,2.168,0,0,0-.655,1.566,2.206,2.206,0,0,0,.655,1.563l17.034,17.035a2.171,2.171,0,0,0,1.563.655,2.211,2.211,0,0,0,1.566-.655l.908-.912-9.521-9.52a.392.392,0,0,1,0-.537l1.212-1.215a.394.394,0,0,1,.28-.115.438.438,0,0,1,.28.115l9.523,9.523,2.542-2.545-8.659-8.656a.4.4,0,0,1,0-.537l1.216-1.215a.394.394,0,0,1,.28-.115.442.442,0,0,1,.28.115l8.655,8.659,2.546-2.542-7.795-7.795a.4.4,0,0,1,0-.54l1.212-1.212a.4.4,0,0,1,.28-.115.432.432,0,0,1,.28.115l7.795,7.795.911-.912a2.166,2.166,0,0,0,.651-1.563,2.212,2.212,0,0,0-.651-1.563l-17.035-17.035a2.509,2.509,0,0,0-1.634-.655A2.21,2.21,0,0,0,10816.114,4656.92Zm13.976.209-3.568,3.572,12.836,12.835,3.568-3.571a2.192,2.192,0,0,0,0-3.126l-9.729-9.733a2.246,2.246,0,0,0-1.543-.628A2.221,2.221,0,0,0,10830.09,4657.13Zm207.422,34.367-19.466-19.462a2.993,2.993,0,0,1,0-4.2l14.611-14.608a2.984,2.984,0,0,1,4.2,0l4.992,4.993,4.787-4.784a2.984,2.984,0,0,1,4.2,0l12.16,12.157a3,3,0,0,1,0,4.2l-5.486,5.482-.28-.28-.232.726a2.826,2.826,0,0,1-.676,1.165l-14.61,14.608a2.984,2.984,0,0,1-4.2,0Zm-4.317-35.286-12.16,12.16a2.166,2.166,0,0,0-.651,1.563,2.2,2.2,0,0,0,.654,1.563l17.035,17.039a2.169,2.169,0,0,0,1.563.651,2.207,2.207,0,0,0,1.563-.651l.912-.912-9.524-9.52a.4.4,0,0,1,0-.537l1.216-1.215a.394.394,0,0,1,.276-.118.427.427,0,0,1,.28.118l9.523,9.523,2.543-2.545-8.656-8.659a.393.393,0,0,1,0-.537l1.212-1.212a.39.39,0,0,1,.28-.118.421.421,0,0,1,.28.118l8.659,8.659,2.542-2.545-7.792-7.795a.392.392,0,0,1,0-.537l1.212-1.212a.383.383,0,0,1,.28-.118.424.424,0,0,1,.28.118l7.795,7.795.908-.912a2.158,2.158,0,0,0,.655-1.563,2.2,2.2,0,0,0-.655-1.563l-17.035-17.039a2.511,2.511,0,0,0-1.634-.651A2.213,2.213,0,0,0,11033.194,4656.211Zm13.979.209-3.571,3.572,12.835,12.835,3.571-3.568a2.2,2.2,0,0,0,0-3.13l-9.732-9.729a2.2,2.2,0,0,0-3.1.021Zm207.418,34.371-19.462-19.462a2.983,2.983,0,0,1,0-4.2l14.611-14.611a2.982,2.982,0,0,1,4.2,0l4.993,4.993,4.783-4.784a2.987,2.987,0,0,1,4.2,0l12.157,12.16a2.983,2.983,0,0,1,0,4.2l-5.482,5.486-.28-.28-.233.723a2.886,2.886,0,0,1-.678,1.168l-14.611,14.608a2.984,2.984,0,0,1-4.2,0Zm-4.317-35.286-12.157,12.16a2.173,2.173,0,0,0-.654,1.563,2.213,2.213,0,0,0,.654,1.563l17.035,17.035a2.17,2.17,0,0,0,1.563.655,2.2,2.2,0,0,0,1.563-.655l.912-.908-9.521-9.523a.392.392,0,0,1,0-.537l1.212-1.212a.388.388,0,0,1,.28-.118.426.426,0,0,1,.28.118l9.521,9.52,2.545-2.542-8.659-8.659a.4.4,0,0,1,0-.537l1.216-1.212a.381.381,0,0,1,.279-.118.447.447,0,0,1,.28.115l8.656,8.659,2.546-2.542-7.8-7.795a.392.392,0,0,1,0-.537l1.213-1.215a.383.383,0,0,1,.279-.115.432.432,0,0,1,.28.115l7.8,7.795.911-.908a2.177,2.177,0,0,0,.651-1.563,2.22,2.22,0,0,0-.651-1.566l-17.035-17.035a2.531,2.531,0,0,0-1.634-.655A2.226,2.226,0,0,0,11250.274,4655.506Zm13.979.209-3.568,3.572,12.836,12.835,3.568-3.572a2.195,2.195,0,0,0,0-3.126l-9.729-9.733a2.248,2.248,0,0,0-1.543-.628A2.214,2.214,0,0,0,11264.254,4655.715Zm207.422,34.371-19.463-19.466a2.983,2.983,0,0,1,0-4.2l14.608-14.608a2.983,2.983,0,0,1,4.2,0l5,4.993,4.783-4.784a2.984,2.984,0,0,1,4.2,0l12.16,12.16a2.993,2.993,0,0,1,0,4.2l-5.486,5.482-.28-.28-.233.726a2.828,2.828,0,0,1-.678,1.165l-14.608,14.611a2.991,2.991,0,0,1-4.2,0Zm-4.318-35.286-12.16,12.157a2.182,2.182,0,0,0-.651,1.563,2.224,2.224,0,0,0,.651,1.566l17.039,17.035a2.167,2.167,0,0,0,1.563.652,2.211,2.211,0,0,0,1.563-.652l.911-.912-9.52-9.52a.394.394,0,0,1,0-.537l1.216-1.215a.387.387,0,0,1,.28-.115.43.43,0,0,1,.276.115l9.523,9.523,2.546-2.545-8.659-8.659a.386.386,0,0,1,0-.534l1.212-1.215a.372.372,0,0,1,.28-.115.406.406,0,0,1,.279.115l8.66,8.659,2.542-2.545-7.795-7.792a.4.4,0,0,1,0-.54l1.215-1.212a.388.388,0,0,1,.28-.118.426.426,0,0,1,.28.118l7.795,7.795.911-.912a2.167,2.167,0,0,0,.652-1.563,2.2,2.2,0,0,0-.655-1.563l-17.035-17.035a2.5,2.5,0,0,0-1.634-.655A2.2,2.2,0,0,0,11467.357,4654.8Zm13.98.209-3.572,3.568,12.836,12.835,3.571-3.568a2.206,2.206,0,0,0,0-3.13l-9.732-9.729a2.23,2.23,0,0,0-1.54-.631A2.2,2.2,0,0,0,11481.338,4655.01Zm207.418,34.367-19.462-19.462a2.983,2.983,0,0,1,0-4.2l14.607-14.611a2.987,2.987,0,0,1,4.2,0l4.993,5,4.783-4.787a3,3,0,0,1,4.2,0l.172.172v3.528l-.735-.736a2.236,2.236,0,0,0-1.54-.628,2.207,2.207,0,0,0-1.562.652l-3.572,3.572,7.41,7.408v3.429l-14.617-14.618a2.551,2.551,0,0,0-1.638-.655,2.226,2.226,0,0,0-1.563.655l-12.156,12.16a2.159,2.159,0,0,0-.655,1.563,2.2,2.2,0,0,0,.655,1.563l17.035,17.035a2.163,2.163,0,0,0,1.563.655,2.212,2.212,0,0,0,1.563-.655l.911-.908-9.52-9.523a.39.39,0,0,1,0-.537l1.212-1.212a.383.383,0,0,1,.28-.118.431.431,0,0,1,.28.118l9.523,9.52,2.542-2.542-8.659-8.659a.4.4,0,0,1,0-.537l1.215-1.212a.378.378,0,0,1,.28-.118.437.437,0,0,1,.28.118l8.656,8.656,2.545-2.542-7.795-7.795a.392.392,0,0,1,0-.537l1.212-1.215a.4.4,0,0,1,.284-.115.43.43,0,0,1,.276.115l6.289,6.289v6.42l-9.3,9.3a2.982,2.982,0,0,1-4.2,0Zm-976.513-105.357-19.463-19.465a2.987,2.987,0,0,1,0-4.2l14.61-14.611a2.992,2.992,0,0,1,4.2,0l5,5,4.78-4.784a2.987,2.987,0,0,1,4.2,0l12.16,12.157a2.994,2.994,0,0,1,0,4.2l-5.485,5.482-.28-.28-.233.723a2.87,2.87,0,0,1-.675,1.168l-14.611,14.611a2.991,2.991,0,0,1-4.2,0Zm-4.318-35.289-12.156,12.16a2.155,2.155,0,0,0-.655,1.563,2.194,2.194,0,0,0,.655,1.563l17.034,17.039a2.17,2.17,0,0,0,1.563.651,2.21,2.21,0,0,0,1.563-.651l.911-.912-9.523-9.52a.4.4,0,0,1,0-.537l1.215-1.215a.376.376,0,0,1,.28-.118.43.43,0,0,1,.28.118l9.521,9.52,2.545-2.542-8.659-8.66a.392.392,0,0,1,0-.537l1.212-1.212a.391.391,0,0,1,.28-.118.421.421,0,0,1,.28.118l8.659,8.659,2.542-2.545-7.795-7.795a.4.4,0,0,1,0-.537l1.216-1.212a.383.383,0,0,1,.28-.118.429.429,0,0,1,.28.118l7.795,7.8.908-.912a2.158,2.158,0,0,0,.654-1.563,2.2,2.2,0,0,0-.654-1.563l-17.035-17.039a2.511,2.511,0,0,0-1.634-.651A2.21,2.21,0,0,0,10707.925,4548.731Zm13.979.209-3.571,3.572,12.835,12.835,3.572-3.568a2.2,2.2,0,0,0,0-3.129l-9.729-9.729a2.2,2.2,0,0,0-3.1.021Zm207.419,34.37-19.463-19.462a2.987,2.987,0,0,1,0-4.2l14.608-14.608a2.986,2.986,0,0,1,4.2,0l4.993,4.993,4.784-4.784a2.983,2.983,0,0,1,4.2,0l12.16,12.16a2.983,2.983,0,0,1,0,4.2l-5.482,5.486-.28-.28-.236.723a2.849,2.849,0,0,1-.675,1.168l-14.607,14.607a2.987,2.987,0,0,1-4.2,0Zm-4.314-35.285-12.16,12.16a2.144,2.144,0,0,0-.652,1.563,2.195,2.195,0,0,0,.652,1.563l17.035,17.035a2.193,2.193,0,0,0,3.126,0l.911-.908-9.521-9.523a.392.392,0,0,1,0-.537l1.212-1.215a.4.4,0,0,1,.28-.115.424.424,0,0,1,.28.118l9.523,9.52,2.543-2.542-8.66-8.66a.4.4,0,0,1,0-.537l1.216-1.215a.394.394,0,0,1,.28-.115.429.429,0,0,1,.28.118l8.655,8.656,2.546-2.542-7.795-7.795a.392.392,0,0,1,0-.537l1.212-1.215a.4.4,0,0,1,.283-.115.431.431,0,0,1,.277.115l7.795,7.795.911-.908a2.18,2.18,0,0,0,.651-1.566,2.218,2.218,0,0,0-.651-1.563l-17.035-17.035a2.527,2.527,0,0,0-1.634-.655A2.21,2.21,0,0,0,10925.009,4548.026Zm13.977.209-3.569,3.572,12.832,12.835,3.572-3.572a2.192,2.192,0,0,0,0-3.126l-9.733-9.733a2.23,2.23,0,0,0-1.539-.628h-.012A2.2,2.2,0,0,0,10938.985,4548.235Zm207.421,34.37-19.466-19.465a2.993,2.993,0,0,1,0-4.2l14.611-14.608a2.984,2.984,0,0,1,4.2,0l4.992,4.993,4.787-4.784a2.984,2.984,0,0,1,4.2,0l12.16,12.157a3,3,0,0,1,0,4.2l-5.486,5.482-.28-.28-.232.723a2.817,2.817,0,0,1-.676,1.168l-14.61,14.611a2.943,2.943,0,0,1-2.1.861h-.013A2.929,2.929,0,0,1,11146.406,4582.605Zm-4.317-35.289-12.16,12.16a2.172,2.172,0,0,0-.651,1.563,2.206,2.206,0,0,0,.651,1.563l17.038,17.039a2.169,2.169,0,0,0,1.563.651,2.207,2.207,0,0,0,1.563-.651l.912-.912-9.524-9.52a.4.4,0,0,1,0-.537l1.216-1.215a.378.378,0,0,1,.276-.115.415.415,0,0,1,.28.115l9.524,9.523,2.542-2.545-8.656-8.656a.4.4,0,0,1,0-.54l1.212-1.212a.39.39,0,0,1,.28-.118.421.421,0,0,1,.28.118l8.659,8.659,2.546-2.545-7.8-7.795a.392.392,0,0,1,0-.537l1.212-1.212a.384.384,0,0,1,.28-.118.426.426,0,0,1,.28.118l7.795,7.8.908-.912a2.158,2.158,0,0,0,.655-1.563,2.2,2.2,0,0,0-.655-1.563l-17.034-17.039a2.515,2.515,0,0,0-1.635-.651A2.207,2.207,0,0,0,11142.089,4547.317Zm13.979.213-3.571,3.568,12.835,12.835,3.571-3.568a2.2,2.2,0,0,0,0-3.129l-9.732-9.729a2.192,2.192,0,0,0-3.1.024Zm207.418,34.367-19.462-19.462a2.983,2.983,0,0,1,0-4.2l14.611-14.611a2.982,2.982,0,0,1,4.2,0l4.993,5,4.784-4.787a2.994,2.994,0,0,1,4.2,0l12.157,12.16a2.983,2.983,0,0,1,0,4.2l-5.486,5.486-.28-.28-.232.723a2.849,2.849,0,0,1-.675,1.168l-14.608,14.608a2.987,2.987,0,0,1-4.2,0Zm-4.314-35.286-12.16,12.16a2.173,2.173,0,0,0-.654,1.563,2.219,2.219,0,0,0,.654,1.563l17.035,17.035a2.165,2.165,0,0,0,1.563.655,2.2,2.2,0,0,0,1.563-.655l.912-.912-9.521-9.52a.4.4,0,0,1,0-.537l1.215-1.212a.389.389,0,0,1,.28-.118.426.426,0,0,1,.28.118l9.521,9.52,2.545-2.545-8.655-8.656a.394.394,0,0,1,0-.537l1.216-1.212a.376.376,0,0,1,.279-.118.427.427,0,0,1,.28.118l8.656,8.656,2.546-2.542-7.795-7.795a.39.39,0,0,1,0-.537l1.212-1.215a.4.4,0,0,1,.279-.115.432.432,0,0,1,.28.115l7.8,7.795.911-.908a2.178,2.178,0,0,0,.651-1.563,2.214,2.214,0,0,0-.651-1.566l-17.038-17.035a2.5,2.5,0,0,0-1.635-.651h-.012A2.2,2.2,0,0,0,11359.172,4546.611Zm13.977.209-3.571,3.572,12.839,12.835,3.568-3.571a2.195,2.195,0,0,0,0-3.126l-9.729-9.733a2.248,2.248,0,0,0-1.543-.628A2.214,2.214,0,0,0,11373.148,4546.821Zm207.422,34.371-19.466-19.466a2.99,2.99,0,0,1,0-4.2l14.611-14.608a2.983,2.983,0,0,1,4.2,0l5,4.993,4.783-4.784a2.984,2.984,0,0,1,4.2,0l12.16,12.157a3,3,0,0,1,0,4.2l-5.486,5.482-.28-.28-.232.726a2.818,2.818,0,0,1-.679,1.165l-14.608,14.611a2.991,2.991,0,0,1-4.2,0Zm-4.318-35.286-12.16,12.157a2.176,2.176,0,0,0-.651,1.563,2.224,2.224,0,0,0,.651,1.566l17.035,17.035a2.2,2.2,0,0,0,1.566.655,2.228,2.228,0,0,0,1.563-.655l.911-.912-9.523-9.52a.4.4,0,0,1,0-.537l1.216-1.215a.387.387,0,0,1,.28-.115.43.43,0,0,1,.276.115l9.523,9.523,2.542-2.545-8.655-8.656a.39.39,0,0,1,0-.537l1.212-1.215a.385.385,0,0,1,.28-.115.421.421,0,0,1,.28.115l8.659,8.659,2.542-2.545-7.795-7.795a.4.4,0,0,1,0-.537l1.215-1.212a.383.383,0,0,1,.28-.118.434.434,0,0,1,.28.118l7.795,7.795.908-.912a2.158,2.158,0,0,0,.655-1.563,2.2,2.2,0,0,0-.655-1.563l-17.035-17.039a2.511,2.511,0,0,0-1.634-.651A2.2,2.2,0,0,0,11576.252,4545.906Zm13.977.209-3.568,3.568,12.836,12.838,3.571-3.572a2.205,2.205,0,0,0,0-3.129l-9.732-9.729a2.2,2.2,0,0,0-3.106.024Zm-1087.97,32.257,1.816-1.816-1.816-1.816v-3.523l3.589,3.59,2.545-2.542-6.134-6.134v-3.488a.384.384,0,0,1,.111.075l7.795,7.8.912-.912a2.185,2.185,0,0,0,.654-1.563,2.232,2.232,0,0,0-.654-1.563l-8.818-8.816v-3.432l11.829,11.829,3.568-3.572a2.192,2.192,0,0,0,0-3.126l-9.729-9.733a2.246,2.246,0,0,0-1.543-.628,2.212,2.212,0,0,0-1.562.652l-2.562,2.564v-3.527l2.025-2.025a2.987,2.987,0,0,1,4.2,0l12.157,12.16a2.983,2.983,0,0,1,0,4.2l-5.482,5.482-.28-.277-.233.723a2.85,2.85,0,0,1-.679,1.165l-11.711,11.714Z" transform="translate(2205.742 -3444.469)"/>
    </g>
  </g>
</svg>
