<svg xmlns="http://www.w3.org/2000/svg" viewBox="0 0 1200 250">
  <defs>
    <style>
      .cls-1 {
        fill: #f0f0f0;
      }

      .cls-2 {
        fill: #646464;
        opacity: 0.05;
      }
    </style>
  </defs>
  <g id="新闻中心BG" transform="translate(-360 -61)">
    <g id="主图" transform="translate(-12348 -1024)">
      <rect id="主图-2" data-name="主图" class="cls-1" width="1200" height="250" transform="translate(12708 1085)"/>
      <path id="Intersection_1" data-name="Intersection 1" class="cls-2" d="M11606.559,4778.468l-18.174-18.173-3.771,3.771,14.4,14.4h-3.771l-18.175-18.177-18.177,18.177h-3.768l21.944-21.945,5.657,5.657,5.657-5.657,21.944,21.945Zm-25.037,0,2.147-2.147-6.6-6.6-8.745,8.745h-3.771l12.517-12.517,10.37,10.37-2.147,2.147Zm-192.754,0L11371.3,4761l-3.775,3.771,13.7,13.7h-3.771l-17.47-17.467-17.467,17.467h-3.769l21.238-21.238,5.657,5.657,5.657-5.657,21.234,21.238Zm-23.62,0,1.441-1.44-6.6-6.6-8.036,8.039h-3.774l11.811-11.81,10.372,10.369-1.44,1.44Zm-194.167,0-16.76-16.76-3.771,3.771,12.989,12.989h-3.771l-16.761-16.76-16.76,16.76h-3.771l20.531-20.531,5.657,5.657,5.657-5.657,20.531,20.531Zm-22.2,0,.73-.73-6.6-6.6-7.331,7.332h-3.771l11.1-11.1,10.373,10.373-.73.73Zm-195.587,0-16.05-16.053-3.775,3.771,12.285,12.282h-3.771l-16.056-16.053-16.054,16.053H10906l19.824-19.825,5.657,5.657,5.657-5.657,19.821,19.825Zm-20.79,0,.024-.023-6.6-6.6-6.625,6.625h-3.774l10.4-10.4,10.369,10.373-.023.023Zm-197,0-15.347-15.347-3.771,3.771,11.575,11.575h-3.771l-15.347-15.347-15.348,15.347h-3.771l19.118-19.118,5.656,5.661,5.657-5.657,19.117,19.115Zm-20.742,0-5.918-5.918-5.919,5.918h-3.771l9.69-9.69,9.689,9.69Zm-197.046,0-14.639-14.637-.717.716v-3.771l.717-.717,18.41,18.408Zm-11.313,0-4.042-4.042v-3.772l7.812,7.813Zm71.628-104.675,22.624-22.628,5.661,5.657,5.656-5.657,22.625,22.628-28.281,28.281Zm3.768,0,24.518,24.513,24.51-24.51-18.854-18.856-3.771,3.771,15.081,15.085-1.886,1.886-20.742-20.746Zm213.313-.707,22.628-22.625,5.657,5.657,5.657-5.657,22.627,22.625-28.284,28.285Zm3.771,0,24.514,24.513,24.514-24.513-18.856-18.853-3.771,3.771,15.085,15.085-1.886,1.885-20.742-20.745Zm213.31-.707,22.627-22.627,5.661,5.66,5.656-5.657,22.625,22.624-28.285,28.285Zm3.771,0,24.518,24.514,24.51-24.514-18.856-18.853-3.771,3.768,15.089,15.088-1.89,1.886-20.742-20.746Zm213.313-.707,22.628-22.628,5.657,5.657,5.657-5.654,22.627,22.625-28.284,28.285Zm3.771,0,24.514,24.514,24.514-24.514-18.856-18.856-3.771,3.771,15.085,15.085-1.886,1.886-20.742-20.742Zm213.31-.707,22.627-22.628,5.661,5.657,5.656-5.657,22.625,22.628-28.285,28.285Zm3.771,0,24.514,24.513,24.514-24.513-18.856-18.856-3.771,3.771,15.089,15.085-1.89,1.886-20.742-20.742Zm213.313-.707,22.628-22.628,5.657,5.657,5.657-5.657,4.977,4.978v3.771l-4.977-4.978-3.771,3.771,8.748,8.749v3.772l-16.294-16.292-18.856,18.857,24.513,24.513,10.638-10.636v3.771l-10.638,10.637Zm-1059.013,20.507,7.546-7.542,1.883,1.882-7.543,7.542Zm217.084-.71,7.543-7.542,1.886,1.886-7.543,7.542Zm217.08-.707,7.543-7.543,1.886,1.886-7.543,7.542Zm217.084-.707,7.543-7.542,1.885,1.886-7.546,7.542Zm217.08-.707,7.543-7.542,1.886,1.886-7.543,7.542Zm217.084-.707,7.543-7.542,1.882,1.885-7.543,7.543Zm-1089.184-.238,13.2-13.2,1.883,1.882-13.2,13.2Zm217.084-.707,13.2-13.2,1.885,1.886-13.2,13.2Zm217.08-.707,13.2-13.2,1.886,1.886-13.2,13.2Zm217.084-.707,13.2-13.2,1.886,1.886-13.2,13.2Zm217.08-.707,13.2-13.2,1.886,1.886-13.2,13.2Zm217.084-.707,13.2-13.2,1.886,1.885-13.2,13.2Zm-1098.607-9.663,13.2-13.2,10.373,10.37-13.2,13.2Zm3.771,0,6.6,6.6,9.428-9.428-6.6-6.6Zm213.31-.71,13.2-13.2,10.369,10.373-13.2,13.2Zm3.771,0,6.6,6.6,9.428-9.428-6.6-6.6Zm213.309-.707,13.2-13.2,10.373,10.373-13.2,13.2Zm3.771,0,6.6,6.6,9.428-9.428-6.6-6.6Zm213.313-.707,13.2-13.2,10.369,10.373-13.2,13.2Zm3.771,0,6.6,6.6,9.429-9.428-6.6-6.6Zm213.309-.707,13.2-13.2,10.373,10.373-13.2,13.2Zm3.771,0,6.6,6.6,9.428-9.428-6.6-6.6Zm213.313-.707,13.2-13.2,10.369,10.373-13.2,13.2Zm3.771,0,6.6,6.6,9.429-9.425-6.6-6.6ZM10686.821,4564.9l22.628-22.628,5.657,5.657,5.657-5.657,22.627,22.628-28.284,28.285Zm3.771,0,24.514,24.517,24.514-24.513-18.856-18.856-3.771,3.771,15.085,15.085-1.886,1.885-20.742-20.742Zm213.313-.7,22.628-22.627,5.657,5.657,5.656-5.657,22.625,22.627-28.281,28.285Zm3.768,0,24.518,24.514,24.51-24.51-18.854-18.856-3.771,3.771,15.086,15.085-1.886,1.886-20.746-20.742Zm213.313-.7,22.628-22.628,5.657,5.657,5.657-5.657,22.627,22.628-28.284,28.281Zm3.771,0,24.514,24.513,24.514-24.51-18.856-18.856-3.771,3.771,15.085,15.085-1.886,1.886-20.742-20.746Zm213.313-.707,22.628-22.628,5.657,5.66,5.656-5.657,22.625,22.625-28.281,28.285Zm3.768,0,24.518,24.513,24.51-24.513-18.854-18.856-3.771,3.771,15.086,15.085-1.886,1.886-20.746-20.742Zm213.313-.707,22.628-22.627,5.657,5.66,5.656-5.657,22.628,22.624-28.284,28.285Zm3.771,0,24.514,24.514,24.514-24.514-18.857-18.856-3.771,3.771,15.085,15.085-1.886,1.886-20.742-20.742Zm-1056.661,23.817,20.279-20.28-18.856-18.856-1.423,1.423V4544.4l1.423-1.424,22.628,22.628-24.051,24.051Zm210.961-4.016,7.543-7.542,1.885,1.885-7.542,7.543Zm217.084-.707,7.542-7.543,1.883,1.882-7.539,7.546Zm217.08-.707,7.543-7.542,1.885,1.882-7.542,7.542Zm217.084-.71,7.542-7.542,1.883,1.886-7.543,7.542Zm217.08-.707,7.542-7.543,1.886,1.886-7.542,7.542Zm-1079.289-2.583,1.423-1.423,1.886,1.886-3.309,3.309Zm207.189,1.641,13.2-13.2,1.886,1.885-13.2,13.2Zm217.084-.707,13.2-13.2,1.886,1.886-13.2,13.2Zm217.08-.71,13.2-13.2,1.886,1.886-13.2,13.2Zm217.08-.707,13.2-13.2,1.886,1.886-13.2,13.2Zm217.084-.707,13.2-13.2,1.886,1.886-13.2,13.2ZM10696.25,4564.9l13.2-13.2,10.373,10.369-13.2,13.2Zm3.771,0,6.6,6.6,9.428-9.428-6.6-6.6Zm213.313-.707,13.2-13.2,10.369,10.369-13.2,13.2Zm3.771,0,6.6,6.6,9.428-9.428-6.6-6.6Zm213.31-.707,13.2-13.2,10.373,10.37-13.2,13.2Zm3.771,0,6.6,6.6,9.428-9.428-6.6-6.6Zm213.313-.71,13.2-13.2,10.373,10.373-13.2,13.2Zm3.771,0,6.6,6.6,9.428-9.428-6.6-6.6Zm-849.009,6.139,3.309-3.309,1.886,1.886-5.194,5.195Zm1062.318-6.846,13.2-13.2,10.369,10.373-13.2,13.2Zm3.771,0,6.6,6.6,9.425-9.428-6.6-6.6Zm-1066.09-5.427v-3.773L10515,4565.6l-1.886,1.886Zm0,5.652.482.482-.482.482Z" transform="translate(2205.742 -3444.469)"/>
    </g>
  </g>
</svg>
